<?xml version="1.0" encoding="UTF-8"?>
<svg version="1.1" xmlns="http://www.w3.org/2000/svg" width="60" height="44">
<path d="M0 0 C19.8 0 39.6 0 60 0 C60 14.52 60 29.04 60 44 C40.2 44 20.4 44 0 44 C0 29.48 0 14.96 0 0 Z " fill="#FDFEFD" transform="translate(0,0)"/>
<path d="M0 0 C1.4540625 0.0309375 1.4540625 0.0309375 2.9375 0.0625 C3.60876129 2.4988189 4.27466354 4.93638883 4.9375 7.375 C5.12828125 8.06529297 5.3190625 8.75558594 5.515625 9.46679688 C6.31466184 12.42037949 6.9375 14.98809219 6.9375 18.0625 C5.6175 18.0625 4.2975 18.0625 2.9375 18.0625 C2.9375 16.7425 2.9375 15.4225 2.9375 14.0625 C0.9575 14.0625 -1.0225 14.0625 -3.0625 14.0625 C-3.3925 15.3825 -3.7225 16.7025 -4.0625 18.0625 C-5.3825 18.0625 -6.7025 18.0625 -8.0625 18.0625 C-7.42102041 15.24894068 -6.77454485 12.43669761 -6.125 9.625 C-5.94259766 8.82255859 -5.76019531 8.02011719 -5.57226562 7.19335938 C-3.92149309 0.08003047 -3.92149309 0.08003047 0 0 Z " fill="#292426" transform="translate(24.0625,13.9375)"/>
<path d="M0 0 C1.60875 -0.04125 3.2175 -0.0825 4.875 -0.125 C5.77992187 -0.14820313 6.68484375 -0.17140625 7.6171875 -0.1953125 C10 0 10 0 12 2 C12.25 5.5 12.25 5.5 12 9 C10 11 10 11 6.875 11.125 C5.92625 11.08375 4.9775 11.0425 4 11 C4 13.31 4 15.62 4 18 C2.68 18 1.36 18 0 18 C0 12.06 0 6.12 0 0 Z " fill="#120912" transform="translate(36,14)"/>
<path d="M0 0 C1.32 0 2.64 0 4 0 C4 1.65 4 3.3 4 5 C2.68 5 1.36 5 0 5 C0 3.35 0 1.7 0 0 Z " fill="#F5FAF4" transform="translate(40,17)"/>
</svg>
